<?xml version="1.0" encoding="utf-8"?>
<!-- Generator: Adobe Illustrator 26.0.3, SVG Export Plug-In . SVG Version: 6.00 Build 0)  -->
<svg version="1.1" id="Livello_1" xmlns="http://www.w3.org/2000/svg" xmlns:xlink="http://www.w3.org/1999/xlink" x="0px" y="0px"
	 viewBox="0 0 143.7 78.8" style="enable-background:new 0 0 143.7 78.8;" xml:space="preserve">
<style type="text/css">
	.st0{fill:none;stroke:#FFFFFF;stroke-width:0.4252;stroke-miterlimit:10;}
	.st1{fill:#FFFFFF;}
	.st2{fill:none;stroke:#392783;stroke-width:0.4252;stroke-miterlimit:10;}
	.st3{fill:#392783;}
	.st4{fill:none;stroke:#000000;stroke-width:0.4252;stroke-miterlimit:10;}
	.st5{fill:#382A7F;}
	.st6{fill:#7C7C7B;}
</style>
<g>
	<g>
		<path class="st3" d="M90.1,20.6H87v-0.9c0-0.4,0-0.7-0.1-0.8c-0.1-0.1-0.2-0.2-0.4-0.2c-0.2,0-0.4,0.1-0.5,0.2
			c-0.1,0.2-0.2,0.4-0.2,0.7c0,0.4,0.1,0.7,0.2,0.9c0.1,0.2,0.4,0.5,1,0.8c1.5,0.9,2.5,1.6,2.9,2.1c0.4,0.6,0.6,1.4,0.6,2.7
			c0,0.9-0.1,1.6-0.3,2c-0.2,0.4-0.6,0.8-1.3,1.1c-0.6,0.3-1.4,0.4-2.2,0.4c-0.9,0-1.7-0.2-2.3-0.5c-0.6-0.3-1.1-0.8-1.3-1.3
			c-0.2-0.5-0.3-1.2-0.3-2.2v-0.8h3.2v1.5c0,0.5,0,0.8,0.1,0.9c0.1,0.1,0.2,0.2,0.5,0.2c0.2,0,0.4-0.1,0.5-0.3
			c0.1-0.2,0.2-0.4,0.2-0.8c0-0.7-0.1-1.2-0.3-1.5c-0.2-0.2-0.7-0.6-1.6-1.1c-0.8-0.5-1.4-0.9-1.7-1.2c-0.3-0.2-0.5-0.6-0.7-1
			c-0.2-0.4-0.3-1-0.3-1.6c0-1,0.1-1.7,0.4-2.1c0.3-0.4,0.7-0.8,1.2-1c0.6-0.3,1.3-0.4,2.1-0.4c0.9,0,1.6,0.1,2.3,0.4
			c0.6,0.3,1,0.6,1.2,1c0.2,0.4,0.3,1.1,0.3,2.1V20.6z"/>
		<polygon class="st3" points="91.5,16.8 97.2,16.8 97.2,19.3 94.9,19.3 94.9,21.7 97,21.7 97,24.1 94.9,24.1 94.9,26.9 97.4,26.9 
			97.4,29.4 91.5,29.4 		"/>
		<path class="st3" d="M111.1,16.8l-1.5,12.6h-4.2c-0.4-1.9-0.7-4.1-1-6.6c-0.1,1.1-0.5,3.3-0.9,6.6h-4.2l-1.5-12.6h3.3l0.4,4.4
			l0.3,4.2c0.1-2.2,0.4-5.1,0.9-8.6h3.5c0,0.4,0.2,1.7,0.4,4.1l0.4,4.8c0.2-3,0.5-6,0.9-8.9H111.1z"/>
		<path class="st3" d="M119,20.6h-3.2v-0.9c0-0.4,0-0.7-0.1-0.8c-0.1-0.1-0.2-0.2-0.4-0.2c-0.2,0-0.4,0.1-0.5,0.2
			c-0.1,0.2-0.2,0.4-0.2,0.7c0,0.4,0.1,0.7,0.2,0.9c0.1,0.2,0.4,0.5,1,0.8c1.5,0.9,2.5,1.6,2.9,2.1c0.4,0.6,0.6,1.4,0.6,2.7
			c0,0.9-0.1,1.6-0.3,2c-0.2,0.4-0.6,0.8-1.3,1.1c-0.6,0.3-1.4,0.4-2.2,0.4c-0.9,0-1.7-0.2-2.3-0.5c-0.6-0.3-1.1-0.8-1.3-1.3
			c-0.2-0.5-0.3-1.2-0.3-2.2v-0.8h3.2v1.5c0,0.5,0,0.8,0.1,0.9c0.1,0.1,0.2,0.2,0.5,0.2c0.2,0,0.4-0.1,0.5-0.3
			c0.1-0.2,0.2-0.4,0.2-0.8c0-0.7-0.1-1.2-0.3-1.5c-0.2-0.2-0.7-0.6-1.6-1.1c-0.8-0.5-1.4-0.9-1.7-1.2c-0.3-0.2-0.5-0.6-0.7-1
			c-0.2-0.4-0.3-1-0.3-1.6c0-1,0.1-1.7,0.4-2.1c0.3-0.4,0.7-0.8,1.2-1c0.6-0.3,1.3-0.4,2.1-0.4c0.9,0,1.6,0.1,2.3,0.4
			c0.6,0.3,1,0.6,1.2,1c0.2,0.4,0.3,1.1,0.3,2.1V20.6z"/>
		<path class="st3" d="M78.8,36.8h-3.4v-2.2c0-0.6,0-1-0.1-1.2c-0.1-0.2-0.2-0.2-0.5-0.2c-0.3,0-0.5,0.1-0.5,0.3
			c-0.1,0.2-0.1,0.6-0.1,1.2v5.8c0,0.6,0,1,0.1,1.2c0.1,0.2,0.2,0.3,0.5,0.3c0.3,0,0.4-0.1,0.5-0.3c0.1-0.2,0.1-0.6,0.1-1.3v-1.6
			h3.4v0.5c0,1.3-0.1,2.2-0.3,2.8c-0.2,0.5-0.6,1-1.3,1.4c-0.7,0.4-1.5,0.6-2.4,0.6c-1,0-1.8-0.2-2.5-0.5c-0.6-0.3-1.1-0.8-1.3-1.4
			c-0.2-0.6-0.3-1.5-0.3-2.8v-3.7c0-0.9,0-1.6,0.1-2c0.1-0.5,0.3-0.9,0.6-1.3c0.3-0.4,0.8-0.7,1.3-1c0.6-0.2,1.2-0.4,2-0.4
			c1,0,1.8,0.2,2.5,0.6c0.7,0.4,1.1,0.8,1.3,1.4c0.2,0.6,0.3,1.4,0.3,2.6V36.8z"/>
		<path class="st3" d="M85.9,31.3l1.9,12.6h-3.5l-0.2-2.3H83l-0.2,2.3h-3.5L81,31.3H85.9z M84.1,39.4c-0.2-1.4-0.3-3.2-0.5-5.3
			c-0.3,2.4-0.6,4.2-0.7,5.3H84.1z"/>
		<path class="st3" d="M88.4,31.3h3.4c1.1,0,1.9,0.1,2.4,0.2c0.6,0.2,1,0.5,1.3,1c0.3,0.5,0.5,1.3,0.5,2.4c0,0.7-0.1,1.2-0.4,1.5
			c-0.2,0.3-0.7,0.5-1.4,0.7c0.8,0.2,1.3,0.5,1.6,0.9c0.3,0.4,0.4,1,0.4,1.8v1.2c0,0.8-0.1,1.5-0.3,1.9c-0.2,0.4-0.5,0.7-1,0.8
			c-0.4,0.2-1.3,0.2-2.7,0.2h-3.9V31.3z M91.8,33.5v2.8c0.1,0,0.3,0,0.3,0c0.3,0,0.5-0.1,0.6-0.2c0.1-0.2,0.1-0.6,0.1-1.4
			c0-0.4,0-0.7-0.1-0.8c-0.1-0.2-0.2-0.3-0.3-0.3C92.4,33.5,92.1,33.5,91.8,33.5 M91.8,38.2v3.5c0.5,0,0.8-0.1,0.9-0.2
			c0.1-0.1,0.2-0.4,0.2-1v-1.2c0-0.5-0.1-0.9-0.2-1C92.6,38.3,92.3,38.2,91.8,38.2"/>
		<rect x="97.5" y="31.3" class="st3" width="3.4" height="12.6"/>
		<polygon class="st3" points="109.9,31.3 109.9,43.9 106.9,43.9 105.1,38.2 105.1,43.9 102.3,43.9 102.3,31.3 105.1,31.3 107,37 
			107,31.3 		"/>
		<path class="st3" d="M111.2,31.3h2.5c1.6,0,2.7,0.1,3.3,0.2c0.6,0.1,1,0.4,1.3,0.7c0.3,0.3,0.5,0.7,0.6,1.1
			c0.1,0.4,0.1,1.2,0.1,2.4v4.4c0,1.1-0.1,1.9-0.2,2.3c-0.1,0.4-0.3,0.7-0.6,0.9c-0.3,0.2-0.6,0.4-1,0.5c-0.4,0.1-1,0.1-1.8,0.1
			h-4.3V31.3z M114.6,33.5v8.3c0.5,0,0.8-0.1,0.9-0.3c0.1-0.2,0.2-0.7,0.2-1.5V35c0-0.6,0-0.9-0.1-1.1c0-0.2-0.1-0.3-0.3-0.4
			C115.2,33.5,115,33.5,114.6,33.5"/>
	</g>
	<g>
		<path class="st3" d="M84,46.3v12.4h-2.9l0-8.4l-1.2,8.4h-2.1l-1.2-8.2l0,8.2h-2.9V46.3H78c0.1,0.7,0.3,1.6,0.4,2.6l0.5,3.2
			l0.8-5.8H84z"/>
		<path class="st3" d="M91.2,46.3l1.9,12.4h-3.4l-0.2-2.2h-1.2l-0.2,2.2h-3.5l1.7-12.4H91.2z M89.4,54.3c-0.2-1.4-0.3-3.1-0.5-5.2
			c-0.3,2.4-0.6,4.1-0.6,5.2H89.4z"/>
		<path class="st3" d="M93.7,46.3h2.4c1.6,0,2.7,0.1,3.2,0.2c0.6,0.1,1,0.4,1.4,0.9c0.4,0.5,0.5,1.3,0.5,2.3c0,1-0.1,1.6-0.4,2
			c-0.3,0.3-0.7,0.5-1.5,0.6c0.7,0.2,1.1,0.4,1.3,0.6c0.2,0.3,0.4,0.5,0.4,0.7c0.1,0.2,0.1,0.8,0.1,1.8v3.3h-3.1v-4.1
			c0-0.7-0.1-1.1-0.2-1.2c-0.1-0.2-0.4-0.2-0.9-0.2v5.6h-3.4V46.3z M97.1,48.5v2.8c0.4,0,0.6,0,0.8-0.1c0.2-0.1,0.2-0.4,0.2-1v-0.7
			c0-0.4-0.1-0.7-0.2-0.8C97.7,48.5,97.5,48.5,97.1,48.5z"/>
		<path class="st3" d="M110.2,53.6c0,1.2,0,2.1-0.1,2.7c-0.1,0.5-0.3,1-0.6,1.4c-0.3,0.4-0.8,0.8-1.3,1c-0.5,0.2-1.2,0.3-1.9,0.3
			c-0.7,0-1.3-0.1-1.9-0.3c-0.6-0.2-1-0.5-1.3-1c-0.3-0.4-0.5-0.9-0.6-1.4c-0.1-0.5-0.1-1.4-0.1-2.7v-2.1c0-1.2,0-2.1,0.1-2.7
			c0.1-0.5,0.3-1,0.6-1.4c0.3-0.4,0.8-0.8,1.3-1c0.5-0.2,1.2-0.3,1.9-0.3c0.7,0,1.3,0.1,1.9,0.3c0.6,0.2,1,0.5,1.3,1
			c0.3,0.4,0.5,0.9,0.6,1.4c0.1,0.5,0.1,1.4,0.1,2.7V53.6z M106.8,49.5c0-0.6,0-0.9-0.1-1.1c-0.1-0.2-0.2-0.2-0.4-0.2
			c-0.2,0-0.3,0.1-0.4,0.2c-0.1,0.1-0.1,0.5-0.1,1.2v5.8c0,0.7,0,1.2,0.1,1.3c0.1,0.2,0.2,0.3,0.4,0.3c0.2,0,0.4-0.1,0.4-0.3
			c0.1-0.2,0.1-0.7,0.1-1.4V49.5z"/>
		<path class="st3" d="M119.3,51.8h-3.4v-2.2c0-0.6,0-1-0.1-1.2c-0.1-0.2-0.2-0.2-0.5-0.2c-0.3,0-0.5,0.1-0.5,0.3
			c-0.1,0.2-0.1,0.6-0.1,1.2v5.8c0,0.6,0,1,0.1,1.2c0.1,0.2,0.2,0.3,0.5,0.3c0.3,0,0.4-0.1,0.5-0.3c0.1-0.2,0.1-0.6,0.1-1.3v-1.6
			h3.4v0.5c0,1.3-0.1,2.2-0.3,2.7c-0.2,0.5-0.6,1-1.3,1.4c-0.6,0.4-1.4,0.6-2.4,0.6c-1,0-1.8-0.2-2.4-0.5c-0.6-0.3-1.1-0.8-1.3-1.4
			c-0.2-0.6-0.3-1.5-0.3-2.7v-3.6c0-0.9,0-1.6,0.1-2c0.1-0.4,0.3-0.9,0.6-1.3c0.3-0.4,0.8-0.7,1.3-1c0.6-0.2,1.2-0.4,1.9-0.4
			c1,0,1.8,0.2,2.5,0.6c0.6,0.4,1.1,0.8,1.3,1.4c0.2,0.5,0.3,1.4,0.3,2.6V51.8z"/>
	</g>
	<g>
		<path class="st3" d="M125.1,54.7h-1.5v-0.4c0-0.2,0-0.3-0.1-0.4c0-0.1-0.1-0.1-0.2-0.1c-0.1,0-0.2,0-0.2,0.1
			c-0.1,0.1-0.1,0.2-0.1,0.3c0,0.2,0,0.4,0.1,0.5c0.1,0.1,0.2,0.2,0.5,0.4c0.7,0.4,1.2,0.7,1.4,1c0.2,0.3,0.3,0.7,0.3,1.3
			c0,0.4-0.1,0.7-0.2,0.9c-0.1,0.2-0.3,0.4-0.6,0.5c-0.3,0.1-0.6,0.2-1,0.2c-0.4,0-0.8-0.1-1.1-0.2c-0.3-0.2-0.5-0.4-0.6-0.6
			c-0.1-0.2-0.1-0.6-0.1-1v-0.4h1.5v0.7c0,0.2,0,0.4,0.1,0.4c0,0.1,0.1,0.1,0.2,0.1s0.2,0,0.2-0.1c0.1-0.1,0.1-0.2,0.1-0.4
			c0-0.4,0-0.6-0.2-0.7c-0.1-0.1-0.4-0.3-0.8-0.5c-0.4-0.3-0.7-0.4-0.8-0.6c-0.1-0.1-0.2-0.3-0.3-0.5c-0.1-0.2-0.1-0.5-0.1-0.8
			c0-0.5,0.1-0.8,0.2-1c0.1-0.2,0.3-0.4,0.6-0.5c0.3-0.1,0.6-0.2,1-0.2c0.4,0,0.8,0.1,1.1,0.2c0.3,0.1,0.5,0.3,0.6,0.5
			c0.1,0.2,0.1,0.5,0.1,1V54.7z"/>
		<path class="st3" d="M126.7,57.7v1.2h-1.2v-1.2H126.7z"/>
		<path class="st3" d="M130,52.9l0.9,6h-1.7l-0.1-1.1h-0.6l-0.1,1.1h-1.7l0.8-6H130z M129.1,56.8c-0.1-0.7-0.2-1.5-0.2-2.5
			c-0.2,1.1-0.3,2-0.3,2.5H129.1z"/>
		<path class="st3" d="M132.4,57.7v1.2h-1.2v-1.2H132.4z"/>
		<path class="st3" d="M136.3,54.7h-1.5v-0.4c0-0.2,0-0.3-0.1-0.4c0-0.1-0.1-0.1-0.2-0.1c-0.1,0-0.2,0-0.2,0.1
			c-0.1,0.1-0.1,0.2-0.1,0.3c0,0.2,0,0.4,0.1,0.5c0.1,0.1,0.2,0.2,0.5,0.4c0.7,0.4,1.2,0.7,1.4,1c0.2,0.3,0.3,0.7,0.3,1.3
			c0,0.4-0.1,0.7-0.2,0.9c-0.1,0.2-0.3,0.4-0.6,0.5c-0.3,0.1-0.6,0.2-1,0.2c-0.4,0-0.8-0.1-1.1-0.2c-0.3-0.2-0.5-0.4-0.6-0.6
			c-0.1-0.2-0.1-0.6-0.1-1v-0.4h1.5v0.7c0,0.2,0,0.4,0.1,0.4c0,0.1,0.1,0.1,0.2,0.1s0.2,0,0.2-0.1c0.1-0.1,0.1-0.2,0.1-0.4
			c0-0.4-0.1-0.6-0.2-0.7c-0.1-0.1-0.4-0.3-0.8-0.5c-0.4-0.3-0.7-0.4-0.8-0.6c-0.1-0.1-0.2-0.3-0.3-0.5c-0.1-0.2-0.1-0.5-0.1-0.8
			c0-0.5,0.1-0.8,0.2-1c0.1-0.2,0.3-0.4,0.6-0.5c0.3-0.1,0.6-0.2,1-0.2c0.4,0,0.8,0.1,1.1,0.2c0.3,0.1,0.5,0.3,0.6,0.5
			c0.1,0.2,0.1,0.5,0.1,1V54.7z"/>
		<path class="st3" d="M137.9,57.7v1.2h-1.2v-1.2H137.9z"/>
	</g>
	<g>
		<path class="st2" d="M47.8,12.7l21.9,16.8h-2.3L45.6,12.7c0,0-0.6-0.5-2-0.8c-0.5-0.1-1-0.4,0.1-0.4
			C44.9,11.5,46.6,11.8,47.8,12.7z"/>
		<path class="st2" d="M53,12.7l21,16.8h-2.2l-21-16.8c0,0-1.1-0.9-3.6-1.1C47.2,11.5,50.8,11,53,12.7z"/>
		<path class="st2" d="M57.4,12.7l21,16.8h-2.2l-21-16.8c0,0-1.1-0.9-3.6-1.1C51.5,11.5,55.1,11,57.4,12.7z"/>
		<path class="st2" d="M61.7,12.7l21,16.8h-2.2l-21-16.8c0,0-1.1-0.9-3.6-1.1C55.9,11.5,59.5,11,61.7,12.7z"/>
		<path class="st2" d="M38.4,40.4L16.5,23.6h2.3l21.9,16.8c0,0,0.6,0.4,1.9,0.8c0.5,0.1,1,0.5-0.2,0.4
			C41.1,41.5,39.6,41.2,38.4,40.4z"/>
		<path class="st2" d="M33.2,40.4l-21-16.8h2.2l21,16.8c0,0,1.1,0.9,3.6,1.1C39,41.5,35.4,42,33.2,40.4z"/>
		<path class="st2" d="M28.9,40.4l-21-16.8h2.2l21,16.8c0,0,1.1,0.9,3.6,1.1C34.7,41.5,31.1,42,28.9,40.4z"/>
		<path class="st2" d="M24.6,40.4l-21-16.8h2.2l21,16.8c0,0,1.1,0.9,3.6,1.1C30.4,41.5,26.8,42,24.6,40.4z"/>
		<path class="st2" d="M38.1,46.5l21-16.8H57L36,46.5c0,0-1.1,0.9-3.6,1.1C32.3,47.7,35.9,48.2,38.1,46.5z"/>
		<path class="st2" d="M42.5,46.5l21-16.8h-2.2l-21,16.8c0,0-1.1,0.9-3.6,1.1C36.6,47.7,40.3,48.2,42.5,46.5z"/>
		<path class="st2" d="M46.8,46.5l21-16.8h-2.2l-21,16.8c0,0-1.1,0.9-3.6,1.1C41,47.7,44.6,48.2,46.8,46.5z"/>
		<path class="st2" d="M51.1,46.5l21-16.8h-2.2l-21,16.8c0,0-1.1,0.9-3.6,1.1C45.3,47.7,48.9,48.2,51.1,46.5z"/>
		<path class="st2" d="M48.2,6.5l-21,16.8h2.2l21-16.8c0,0,1.1-0.9,3.6-1.1C54,5.4,50.4,4.9,48.2,6.5z"/>
		<path class="st2" d="M43.8,6.5l-21,16.8H25L46,6.5c0,0,1.1-0.9,3.6-1.1C49.7,5.4,46.1,4.9,43.8,6.5z"/>
		<path class="st2" d="M39.5,6.5l-21,16.8h2.2l21-16.8c0,0,1.1-0.9,3.6-1.1C45.3,5.4,41.7,4.9,39.5,6.5z"/>
		<path class="st2" d="M35.2,6.5l-21,16.8h2.2l21-16.8c0,0,1.1-0.9,3.6-1.1C41,5.4,37.4,4.9,35.2,6.5z"/>
	</g>
</g>
<g>
	<path class="st6" d="M4.2,66.9c0.7-0.7,1.6-1.1,2.6-1.1c1.4,0,2.5,0.5,3.1,1.4c0.4,0.5,0.6,1.1,0.6,1.6H8.7
		c-0.1-0.4-0.3-0.7-0.4-0.9c-0.3-0.4-0.8-0.6-1.4-0.6c-0.6,0-1.1,0.3-1.5,0.8c-0.4,0.5-0.6,1.3-0.6,2.2c0,1,0.2,1.7,0.6,2.2
		c0.4,0.5,0.9,0.7,1.5,0.7c0.6,0,1.1-0.2,1.4-0.6c0.2-0.2,0.3-0.6,0.4-1h1.8c-0.2,0.9-0.5,1.7-1.2,2.3c-0.6,0.6-1.4,0.9-2.4,0.9
		c-1.2,0-2.2-0.4-2.9-1.2c-0.7-0.8-1-1.9-1-3.3C3,68.8,3.4,67.7,4.2,66.9"/>
	<path class="st6" d="M17.1,73.7c-0.5,0.7-1.3,1-2.4,1s-1.9-0.3-2.4-1c-0.5-0.7-0.8-1.5-0.8-2.4c0-0.9,0.3-1.7,0.8-2.4
		c0.5-0.7,1.3-1,2.4-1s1.9,0.3,2.4,1c0.5,0.7,0.8,1.5,0.8,2.4C17.9,72.3,17.6,73.1,17.1,73.7 M15.7,72.8c0.3-0.3,0.4-0.8,0.4-1.5
		c0-0.6-0.1-1.1-0.4-1.5c-0.3-0.3-0.6-0.5-1.1-0.5c-0.5,0-0.9,0.2-1.1,0.5c-0.3,0.3-0.4,0.8-0.4,1.5c0,0.6,0.1,1.1,0.4,1.5
		c0.3,0.3,0.6,0.5,1.1,0.5C15.1,73.3,15.5,73.2,15.7,72.8"/>
	<path class="st6" d="M24,68.5c0.4,0.3,0.6,0.9,0.6,1.7v4.3h-1.7v-3.8c0-0.3,0-0.6-0.1-0.8c-0.2-0.3-0.5-0.5-0.9-0.5
		c-0.6,0-0.9,0.2-1.1,0.7c-0.1,0.3-0.2,0.6-0.2,1v3.4h-1.7v-6.3h1.6v0.9c0.2-0.3,0.4-0.6,0.6-0.7c0.3-0.3,0.8-0.4,1.3-0.4
		C23,68,23.6,68.2,24,68.5"/>
	<path class="st6" d="M30.8,68.5c0.4,0.3,0.6,0.9,0.6,1.7v4.3h-1.7v-3.8c0-0.3,0-0.6-0.1-0.8c-0.2-0.3-0.5-0.5-0.9-0.5
		c-0.6,0-0.9,0.2-1.1,0.7c-0.1,0.3-0.2,0.6-0.2,1v3.4h-1.7v-6.3h1.6v0.9c0.2-0.3,0.4-0.6,0.6-0.7c0.3-0.3,0.8-0.4,1.3-0.4
		C29.9,68,30.4,68.2,30.8,68.5"/>
	<path class="st6" d="M37,68.3c0.4,0.2,0.8,0.5,1.1,0.9c0.3,0.4,0.4,0.8,0.5,1.3c0,0.3,0.1,0.7,0.1,1.3h-4.6c0,0.6,0.2,1.1,0.7,1.3
		c0.3,0.2,0.6,0.2,0.9,0.2c0.4,0,0.7-0.1,0.9-0.3c0.1-0.1,0.2-0.2,0.3-0.4h1.7c0,0.4-0.2,0.8-0.6,1.1c-0.6,0.6-1.4,0.9-2.4,0.9
		c-0.8,0-1.6-0.3-2.2-0.8c-0.6-0.5-1-1.4-1-2.5c0-1.1,0.3-1.9,0.9-2.5c0.6-0.6,1.3-0.9,2.3-0.9C36.1,68,36.6,68.1,37,68.3
		 M34.6,69.7c-0.2,0.2-0.4,0.6-0.4,1H37c0-0.4-0.2-0.8-0.4-1c-0.3-0.2-0.6-0.3-1-0.3C35.1,69.4,34.8,69.5,34.6,69.7"/>
	<path class="st6" d="M43.7,70.5c0-0.2-0.1-0.4-0.2-0.6c-0.2-0.3-0.5-0.4-0.9-0.4c-0.6,0-0.9,0.3-1.1,0.8c-0.1,0.3-0.2,0.7-0.2,1.2
		c0,0.5,0.1,0.8,0.2,1.1c0.2,0.5,0.6,0.8,1.1,0.8c0.4,0,0.7-0.1,0.8-0.3s0.3-0.5,0.3-0.8h1.7c0,0.5-0.2,1-0.5,1.4
		c-0.5,0.7-1.3,1.1-2.3,1.1c-1,0-1.8-0.3-2.2-0.9c-0.5-0.6-0.7-1.4-0.7-2.3c0-1.1,0.3-1.9,0.8-2.5c0.5-0.6,1.3-0.9,2.2-0.9
		c0.8,0,1.4,0.2,1.9,0.5c0.5,0.4,0.8,1,0.9,1.9H43.7z"/>
	<path class="st6" d="M46,69.4v-1.2h0.9v-1.8h1.6v1.8h1v1.2h-1v3.3c0,0.3,0,0.4,0.1,0.5c0.1,0.1,0.3,0.1,0.6,0.1c0.1,0,0.1,0,0.2,0
		c0.1,0,0.1,0,0.2,0v1.2l-0.8,0c-0.8,0-1.3-0.1-1.6-0.4c-0.2-0.2-0.3-0.5-0.3-0.9v-3.9H46z"/>
	<polygon class="st6" points="57.7,68.2 59.4,68.2 60.4,72.7 61.3,68.2 63.1,68.2 61.2,74.5 59.5,74.5 58.5,69.9 57.5,74.5 
		55.8,74.5 54,68.2 55.8,68.2 56.8,72.7 	"/>
	<path class="st6" d="M65.7,67.4H64v-1.5h1.7V67.4z M64,68.2h1.7v6.3H64V68.2z"/>
	<path class="st6" d="M66.6,69.4v-1.2h0.9v-1.8h1.6v1.8h1v1.2h-1v3.3c0,0.3,0,0.4,0.1,0.5c0.1,0.1,0.3,0.1,0.6,0.1
		c0.1,0,0.1,0,0.2,0c0.1,0,0.1,0,0.2,0v1.2l-0.8,0c-0.8,0-1.3-0.1-1.6-0.4c-0.2-0.2-0.3-0.5-0.3-0.9v-3.9H66.6z"/>
	<path class="st6" d="M75.8,68.2c0.3,0.1,0.6,0.3,0.8,0.6c0.2,0.2,0.3,0.5,0.3,0.7c0,0.2,0.1,0.7,0.1,1.2v3.7h-1.7v-3.8
		c0-0.3-0.1-0.6-0.2-0.8c-0.1-0.3-0.4-0.4-0.9-0.4c-0.4,0-0.8,0.1-1,0.4c-0.2,0.3-0.3,0.7-0.3,1.3v3.4h-1.7V66h1.7v3
		c0.2-0.4,0.5-0.6,0.8-0.8c0.3-0.1,0.6-0.2,1-0.2C75.1,68,75.5,68.1,75.8,68.2"/>
	<rect x="81.5" y="66" class="st6" width="1.8" height="8.5"/>
	<path class="st6" d="M89.7,68.5c0.4,0.3,0.6,0.9,0.6,1.7v4.3h-1.7v-3.8c0-0.3,0-0.6-0.1-0.8c-0.2-0.3-0.5-0.5-0.9-0.5
		c-0.6,0-0.9,0.2-1.1,0.7c-0.1,0.3-0.2,0.6-0.2,1v3.4h-1.7v-6.3h1.6v0.9c0.2-0.3,0.4-0.6,0.6-0.7c0.3-0.3,0.8-0.4,1.3-0.4
		C88.8,68,89.3,68.2,89.7,68.5"/>
	<path class="st6" d="M96.5,68.5c0.4,0.3,0.6,0.9,0.6,1.7v4.3h-1.7v-3.8c0-0.3,0-0.6-0.1-0.8c-0.2-0.3-0.5-0.5-0.9-0.5
		c-0.6,0-0.9,0.2-1.1,0.7c-0.1,0.3-0.2,0.6-0.2,1v3.4h-1.7v-6.3H93v0.9c0.2-0.3,0.4-0.6,0.6-0.7c0.3-0.3,0.8-0.4,1.3-0.4
		C95.6,68,96.1,68.2,96.5,68.5"/>
	<path class="st6" d="M103.7,73.7c-0.5,0.7-1.3,1-2.4,1c-1.1,0-1.9-0.3-2.4-1c-0.5-0.7-0.8-1.5-0.8-2.4c0-0.9,0.3-1.7,0.8-2.4
		c0.5-0.7,1.3-1,2.4-1c1.1,0,1.9,0.3,2.4,1c0.5,0.7,0.8,1.5,0.8,2.4C104.5,72.3,104.2,73.1,103.7,73.7 M102.4,72.8
		c0.3-0.3,0.4-0.8,0.4-1.5c0-0.6-0.1-1.1-0.4-1.5c-0.3-0.3-0.6-0.5-1.1-0.5c-0.5,0-0.9,0.2-1.1,0.5c-0.3,0.3-0.4,0.8-0.4,1.5
		c0,0.6,0.1,1.1,0.4,1.5c0.3,0.3,0.6,0.5,1.1,0.5C101.7,73.3,102.1,73.2,102.4,72.8"/>
	<polygon class="st6" points="109.1,68.2 110.9,68.2 108.6,74.5 106.9,74.5 104.6,68.2 106.5,68.2 107.8,72.8 	"/>
	<path class="st6" d="M114.1,70.7c0.3,0,0.5-0.1,0.7-0.1c0.2-0.1,0.4-0.3,0.4-0.5c0-0.3-0.1-0.4-0.3-0.5c-0.2-0.1-0.4-0.1-0.8-0.1
		c-0.4,0-0.7,0.1-0.8,0.3c-0.1,0.1-0.2,0.3-0.2,0.6h-1.6c0-0.6,0.2-1,0.5-1.4c0.4-0.6,1.2-0.8,2.3-0.8c0.7,0,1.3,0.1,1.9,0.4
		c0.5,0.3,0.8,0.8,0.8,1.6v2.9c0,0.2,0,0.4,0,0.7c0,0.2,0,0.4,0.1,0.4c0.1,0.1,0.1,0.1,0.2,0.2v0.2h-1.8c0-0.1-0.1-0.2-0.1-0.4
		c0-0.1,0-0.2,0-0.4c-0.2,0.2-0.5,0.5-0.8,0.6c-0.4,0.2-0.8,0.3-1.2,0.3c-0.6,0-1.1-0.2-1.4-0.5c-0.4-0.3-0.6-0.8-0.6-1.4
		c0-0.8,0.3-1.3,0.9-1.7c0.3-0.2,0.8-0.3,1.5-0.4L114.1,70.7z M115.1,71.4c-0.1,0.1-0.2,0.1-0.3,0.2c-0.1,0-0.3,0.1-0.4,0.1
		l-0.4,0.1c-0.4,0.1-0.6,0.1-0.8,0.2c-0.3,0.2-0.4,0.4-0.4,0.7c0,0.3,0.1,0.5,0.2,0.6c0.2,0.1,0.4,0.2,0.6,0.2c0.4,0,0.7-0.1,1-0.3
		c0.3-0.2,0.5-0.6,0.5-1.1V71.4z"/>
	<path class="st6" d="M117.6,69.4v-1.2h0.9v-1.8h1.6v1.8h1v1.2h-1v3.3c0,0.3,0,0.4,0.1,0.5c0.1,0.1,0.3,0.1,0.6,0.1c0,0,0.1,0,0.2,0
		c0.1,0,0.1,0,0.2,0v1.2l-0.8,0c-0.8,0-1.3-0.1-1.6-0.4c-0.2-0.2-0.3-0.5-0.3-0.9v-3.9H117.6z"/>
	<path class="st6" d="M123.9,67.4h-1.7v-1.5h1.7V67.4z M122.2,68.2h1.7v6.3h-1.7V68.2z"/>
	<path class="st6" d="M130.4,73.7c-0.5,0.7-1.3,1-2.4,1c-1.1,0-1.9-0.3-2.4-1c-0.5-0.7-0.8-1.5-0.8-2.4c0-0.9,0.3-1.7,0.8-2.4
		c0.5-0.7,1.3-1,2.4-1c1.1,0,1.9,0.3,2.4,1c0.5,0.7,0.8,1.5,0.8,2.4C131.2,72.3,131,73.1,130.4,73.7 M129.1,72.8
		c0.3-0.3,0.4-0.8,0.4-1.5c0-0.6-0.1-1.1-0.4-1.5c-0.3-0.3-0.6-0.5-1.1-0.5c-0.5,0-0.9,0.2-1.1,0.5c-0.3,0.3-0.4,0.8-0.4,1.5
		c0,0.6,0.1,1.1,0.4,1.5c0.3,0.3,0.6,0.5,1.1,0.5C128.5,73.3,128.9,73.2,129.1,72.8"/>
	<path class="st6" d="M137.3,68.5c0.4,0.3,0.6,0.9,0.6,1.7v4.3h-1.7v-3.8c0-0.3,0-0.6-0.1-0.8c-0.2-0.3-0.5-0.5-0.9-0.5
		c-0.6,0-0.9,0.2-1.1,0.7c-0.1,0.3-0.2,0.6-0.2,1v3.4h-1.7v-6.3h1.6v0.9c0.2-0.3,0.4-0.6,0.6-0.7c0.3-0.3,0.8-0.4,1.3-0.4
		C136.4,68,136.9,68.2,137.3,68.5"/>
</g>
</svg>
